<svg width="11" height="17" viewBox="0 0 11 17" fill="none" xmlns="http://www.w3.org/2000/svg">
<path d="M8.64286 0H2.35714C1.0559 0.00155643 0.00143872 1.14229 0 2.55V16.575C9.59357e-05 16.649 0.0180795 16.7218 0.0521284 16.786C0.16027 16.99 0.40077 17.0605 0.589286 16.9435L5.5 13.8839L10.4107 16.9435C10.4706 16.9803 10.5383 16.9998 10.6071 17C10.824 16.9996 10.9996 16.8095 11 16.575V2.55C10.9986 1.14229 9.9441 0.00155643 8.64286 0ZM10.2143 15.8395L5.69643 13.0247C5.63653 12.988 5.56886 12.9685 5.5 12.9683C5.43113 12.9685 5.36347 12.988 5.30357 13.0247L0.785714 15.8395V2.55C0.786817 1.61159 1.48971 0.851192 2.35714 0.849999H8.64286C9.51029 0.851192 10.2132 1.61159 10.2143 2.55V15.8395Z" fill="black"/>
</svg>
 